<svg xmlns="http://www.w3.org/2000/svg" height="800" width="1200" viewBox="-33.6591 -65.41075 291.7122 392.4645"><path d="M112.196 261.098C46.425 232.436.5 174.64.5 97.722l.566-72.92S48.387 1.204 112.196.5h0c63.812.704 111.13 24.302 111.13 24.302l.568 72.92c0 76.918-45.924 134.714-111.698 163.376z" stroke="#000" fill="#FFF"/><path d="M112.196 251.623C47.096 222.446 9.555 165.033 9.555 97.487l.525-66.4C23.553 25.35 63.007 10.534 112.195 9.974c49.188.561 88.644 15.376 102.116 21.113l.527 66.4c.002 67.546-37.541 124.959-102.642 154.136z" fill="#008bd0"/><path d="M112.198 244.863c-61.596-28.1-97.316-83.924-97.316-148.69l.506-41.49c16.191-6.559 52.353-18.844 96.873-19.354 44.397.511 80.556 12.801 96.749 19.357l.504 41.487c-.001 64.771-35.723 120.595-97.316 148.69z" fill="#FFF"/><circle r="73.974" cy="129.502" cx="112.197" fill="#008bd0"/><circle r="51.077" cy="129.502" cx="112.197" fill="#fff"/><circle r="25.637" cy="129.502" cx="112.197" fill="#008bd0"/><path d="M23.316 61.07c-.07-.02-.127-.016-.166.02-.382.683-.01 1.497.188 2.152.814 3.51 3.998 6.968 5.197 8.559-1.454-.441-3.227-1.401-5.006-2.697-1.06-.86-1.314.552-.832 1.482 1.807 3.82 5.821 6.91 8.568 9.56-1.17.723-2.461-.214-3.64-.53-.956.004-2.618-1.66-3.278.16 1.118 4.185 5.608 5.878 8.616 8.767-.495.938-1.295-.103-2.108.27-.535.109-.295.76-.324 1.011 1.369 5.294 9.436 7.689 9.965 8.329-1.188.349-2.744-.865-3.863.062-1.688 3.546 9.397 6.067 10.103 6.906-.707-.007-2.659-.316-2.637 1.334.946 3.193 10.961 5.742 10.961 5.742.037.747-3.26.492-3.633 1.383.475 3.091 7.134 3.935 11.198 4.61.002 1.745-2.389.448-2.907 1.761.272 1.736 4.62 3.558 6.749 3.745 3.902.413-1.195 1.098-.745 2.656.632 1.84 7.129 2.146 9.116 2.838-.29.015-3.214 1.404-3.178 2.15.785 2.801 8.574 2.824 10.424 3.273-.91.96-2.66.837-3.008 2.227-.335 1.73 6.86 2.904 10.22 2.494-.26.636-3.27 1.116-3.292 2.363.587.97 1.97 1.193 3.064 1.473-1.125 2.732.12 4.116 1.158 5.014-3.846.396-17.571-.054-19.857-.067-1.677-.29-4.385-.167-5.996.036-3.83.103 2.812 4.945 9.896 4.382.095.244-7.775 3.608-4.002 4.02 2.672.243 4.924-.448 7.133-1.18 0 0-5.646 4.505-3.064 4.473 1.499.053 5.247-1.502 5.922-1.285-.236 1.134-2.278 2.563-1.64 3.072 1.619.795 3.513.044 4.725-1.146.063 1.286-.995 2.627-1.511 3.982.459.892 3.066-.025 4.336-1.418-.24 1.051-.539 2.604-.31 3.88.284 2.079 1.964-1.509 3.066-1.937.362.605-.068 1.168.086 1.784-.375 1.54 1.674-.623 2.484-.204-.214.716-.61 1.15-1.203 1.762-.463.73.466 1.06.97 1.158.03.621-.698 1.033-.54 1.69.246.819 1.207.066 1.646.543l-.828 1.744c.44.519.989-.174 1.428.305.269.37-.827.954-.561 1.316.609.551 1.03-.177 1.623.045-.138.589-.95 1.293-.41 1.807 1.173 1.043 1.424-1.482 2.623-1.623.834.07-.309 1.344.57 1.468.624.011.887-1.277 1.198-1.709 1.09 1.246 1.573 3.153 2.015 4.545-.143 1.337-1.342-.267-2.062.309-.522 1.23-1.311 2.662-2.34 3.709-.131 1.586 1.247 2.231 2.328 2.857 2.204.02 1.615 2.5 3.076 3.469.77.267 2.246.888 3.418.207.498-.023-.057.427.414.682 2.435.265 3.454-1.197 5.086-1.817.986-.415 1-1.136 1.873-1.094 1.424 1.095 2.512-.495 4.147-.2.617-.114 1.14.255 1.824-.09 2.695-.132 3.896-2.57 4.922-4.532.467-2.387-1.841-3.13-3.01-4.564-1.508-1.091-4.11.583-5.19-1.108-1.003-2.695-1.94-5.626-3.101-8.146.85-1.33 10.418-5.172 12.014-9.354.186-.695-.297-.982.02-1.33.726.422.876 1.36 1.962 1.028.565-.318.62-.904 1.102-1.26.745-.078.406 1.021 1.18 1.146.833.043 1.153-1.053 1.804-1.375 1.319-1.062 1.146 1.356 2.46 1.043 2.28-3.01 5.12-.664 7.425-1.15 2.067-.148 3.565-.213 5.09.377 1.068.613-.375 1.602.304 1.978 1.295.146 2.397-1.153 3.014-2.14 1.142-3.006-2.327-4.252-3.633-6.309-.35-1.27-1.933-2.814-2.967-3.81a13.04 13.04 0 00-3.338-2.338c.134-.71.061-1.572-.38-2.645 1.093-.279 2.476-.502 3.062-1.472-.022-1.247-3.034-1.729-3.293-2.364 3.359.41 10.558-.766 10.223-2.494-.35-1.39-2.1-1.267-3.01-2.226 1.852-.45 9.64-.474 10.426-3.274.036-.747-2.89-2.136-3.182-2.15 1.988-.692 8.484-.998 9.117-2.838.45-1.558-4.646-2.243-.744-2.656 2.13-.188 6.476-2.009 6.748-3.745-.518-1.313-2.906-.016-2.904-1.761 4.064-.676 10.721-1.519 11.195-4.61-.372-.892-3.669-.636-3.633-1.382 0 0 10.015-2.549 10.961-5.743.022-1.65-1.93-1.342-2.636-1.334.706-.839 11.791-3.36 10.103-6.906-1.118-.927-2.673.287-3.861-.062.53-.64 8.597-3.035 9.965-8.329-.03-.25.21-.902-.325-1.011-.813-.373-1.612.668-2.107-.27 3.009-2.888 7.496-4.582 8.613-8.767-.66-1.82-2.317-.154-3.273-.16-1.18.317-2.473 1.252-3.643.53 2.747-2.651 6.763-5.74 8.569-9.56.484-.93.229-2.342-.83-1.482-1.78 1.296-3.551 2.256-5.004 2.697 1.199-1.59 4.38-5.05 5.195-8.559.197-.655.568-1.469.187-2.152-.31-.289-1.733 1.452-2.681 2.154-2.238 1.595-12.866 10.01-18.108 13.055-5.897 3.427-13.831 7.492-16.603 9.281-2.771 1.788-8.518 6.705-11.211 9.123-2.692 2.418-13.839 14.115-17.299 16.606-3.46 2.49-11.346 6.367-14.113 8.996-2.621 2.49-5.988 7.712-10.104 17.728-4.115-10.016-7.48-15.238-10.101-17.728-2.768-2.628-10.656-6.504-14.116-8.996-3.459-2.491-14.603-14.188-17.296-16.606-2.693-2.418-8.44-7.334-11.211-9.123-2.771-1.789-10.706-5.854-16.604-9.281-5.242-3.046-15.868-11.459-18.107-13.055-.83-.614-2.023-2.024-2.516-2.173zm80.57 111.594c-.004.75-.678 1.407-.52 2.106l2.284-.9c.691.547-.434 1.31-.4 2.015.13 1.017 1.132-.637 1.744-.875.26.236-.083.835.422.977.634.219.94-1.168 1.4-.276.23.446.729 1.093.717 1.676-2.261-.49-3.251 1.176-2.87 3.625.21.03.754.688.725.94-.61.278-1.66.069-2.144-.346-1.49-2.421-2.56-6.089-3.022-8.15.305-.558 1.046-.679 1.664-.792z"/><g fill="#ff0"><path d="M48.572 81.299c2.38 1.09 4.438 2.361 6.928 3.155 5.254 2.154 14.159 10.824 15.653 12.497 4.468 4.688 14.553 13.798 16.02 14.891 3.679 2.581 10.278 5.658 13.019 8.185 7.472 6.02 11.896 19.535 12.108 20.48-.484-.069-1.604.365-1.788.001-.754-1.834-2.409-4.247-3.636-6.391-2.486-4.118-6.235-7.718-9.364-10.517-22.297-14.367-33.368-29.727-37.317-33.223-3.355-2.708-7.375-4.621-9.888-6.19-4.962-2.045-8.189-5.683-13.285-7.888-3.692-1.566-8.164-6.089-9.825-9.825.517.39 17.41 12.773 21.375 14.825z"/><path d="M46.697 83.759c-1.165 1.119.233 2.837.289 3.125 0 0-11.693-2.767-15.171-9.176-.412-.77-1.88-2.964-1.711-3.762 3.596 2.906 13.042 7.741 16.593 9.813zm-4.141 4.44c.727.422 5.397 2.006 5.397 2.006-.208.484.346 2.629 1.868 3.459-3.243-.881-7.67-2.395-10.863-3.943-4.143-1.864-7.413-5.558-8.084-7.396 0 .001 7.86 4.19 11.682 5.874zm10.656-.831c.6.545 3.857 2.93 4.982 3.667-2.2.066-4.359-.138-6.78-1.591-.969-.761-1.591-1.813-1.038-2.422.622-.622 2.01-.219 2.836.346zm-1.661 8.788c-.553.691 2.075 3.044 2.075 3.044-.045-.082-9.824-.208-14.806-3.806-1.427-1.136-5.466-3.391-4.705-5.12 0 .001 10.794 5.19 17.436 5.882zm7.636-3.403c1.082.981 1.774 2.283 2.269 3.049-2.478.329-6.998.216-9.004-2.414-.507-.73.138-1.384 1.038-1.314 1.576-.036 4.496.76 5.697.679zm5.216 6.397c1.817 1.019.474 2.055.601 2.09-2.507.579-6.602.728-7.671-1.332-.868-2.992 4.441-2.152 5.774-2.092.284.734.736.945 1.296 1.334zm-9.461 2.264c1.446.678.484 1.937 4.774 3.39-5.466.692-20.479-3.251-17.782-4.704.003-.023 10.939 1.142 13.008 1.314zm13.984 2.711c.615.195 3.59 3.24 3.66 3.793 0 0-8.649.899-9.586-2.591-.655-2.668 4.414-1.503 5.926-1.202zm-9.299 3.653c1.135 1.108 3.024 1.515 3.918 2.802.391.452.391.798-.542.816-4.464.121-9.521-.909-13.366-3.922-1.199-1.146-.156-1.488-.156-1.488 3.431.455 7.606.479 10.146 1.792zm15.864 2.285c-.463.729-.492 1.872.054 2.842l1.13 1.025c-.162.091-9.141-.339-8.614-2.781.165-1.571 5.567-1.786 7.43-1.086zm-10.102 3.736c1.591 1.086 3.455 1.107 5.189 1.729-.208.485.969 1.385 1.453 1.522-2.49.346-12.865-.073-16.121-2.076-2.906-2.005 6.435-1.521 9.479-1.175zm16.552 1.58c-.246.926-.431 2.502 2.696 4.149-1.701.914-7.486 1.258-8.739-1.071-.145-.409-.258-1.027.056-1.416 1.197-1.859 5.513-2.013 5.987-1.662zm-10.168 4.567c.522 1.559 5.378 2.432 5.378 2.432-3.457.708-14.46.623-13.491-2.491 1.867-.921 8.025-.899 8.113.059zm15.718 1.023c.355 1.313 1.712 2.23 2.944 2.793-.17.389-1.384.691-1.853.853-1.972.469-8.387.116-6.406-2.681.649-.732 3.946-.94 5.315-.965zm-9.616 3.086c-.17 1.368 4.449 2.61 5.618 2.72l.226.363c-.121.088-11.688 1.675-12.951-1.366-1.158-2.078 4.611-1.762 7.107-1.717zm15.438 1.245c-.499.855 2.589 3.375 5.246 3.609-1.273 1.564-11.444 2.325-10.346-1.658.77-2.105 5.1-1.951 5.1-1.951zm-8.921 3.717c.729 2.167 4.245 2.439 5.975 2.979-.088.753-1.458.859-2.422 1.107-3.256.583-14.184-.692-11.693-2.837-.034-.706 8.14-1.249 8.14-1.249zm14.55 1.786c.449.685 1.803 2.438 3.342 2.913 0 0-6.903 2.528-8.389-.683.609-2.024 5.047-2.23 5.047-2.23zm-9.164 3.853c1.595 1.17 2.484 1.681 4.394 1.63.062.412 1.931.747 1.66 1.176-3.622-.115-11.139 1.868-13.699-.762-.346-.691 5.692-2.031 7.645-2.044zm15.45 2.326c-.65 2.025-2.542 1.578-4.395 1.917-1.264.293-3.616-1.021-1.012-2.86 1.993-.887 3.733-.139 5.407.943zm-8.911 2.486s.415 1.245 3.626 1.677c.056.289-6.416 1.479-9.023-.017-1.453-1.037 3.408-2.318 5.397-1.66zm10.828 1.909c-.749.826-1.972.859-2.965.56-1.913-.809-1.367-1.474-.114-1.984 1.799-.416 2.685.154 3.079 1.424zm70.82-60.078c-2.38 1.09-4.437 2.361-6.929 3.155-5.253 2.154-14.158 10.824-15.652 12.497-4.469 4.688-14.553 13.798-16.02 14.891-3.679 2.581-10.277 5.658-13.02 8.185-7.472 6.02-11.896 19.535-12.106 20.48.483-.069 1.604.365 1.787.001.754-1.834 2.409-4.247 3.636-6.391 2.486-4.118 6.236-7.718 9.364-10.517 22.298-14.367 33.367-29.727 37.317-33.223 3.355-2.708 7.376-4.621 9.888-6.19 4.963-2.045 8.19-5.683 13.285-7.888 3.691-1.566 8.164-6.089 9.824-9.825-.517.39-17.409 12.773-21.374 14.825z"/><path d="M179.84 83.759c1.165 1.119-.232 2.837-.288 3.125 0 0 11.693-2.767 15.171-9.176.411-.77 1.881-2.964 1.712-3.762-3.599 2.906-13.045 7.741-16.595 9.813zm4.14 4.44c-.727.422-5.397 2.006-5.397 2.006.208.484-.346 2.629-1.868 3.459 3.244-.881 7.671-2.395 10.863-3.943 4.143-1.864 7.413-5.558 8.084-7.396 0 .001-7.86 4.19-11.682 5.874zm-10.655-.831c-.601.545-3.857 2.93-4.982 3.667 2.2.066 4.359-.138 6.781-1.591.969-.761 1.59-1.813 1.038-2.422-.623-.622-2.012-.219-2.837.346zm1.661 8.788c.553.691-2.076 3.044-2.076 3.044.046-.082 9.825-.208 14.807-3.806 1.427-1.136 5.466-3.391 4.704-5.12 0 .001-10.793 5.19-17.435 5.882zm-7.638-3.403c-1.081.981-1.772 2.283-2.267 3.049 2.478.329 6.998.216 9.004-2.414.507-.73-.138-1.384-1.037-1.314-1.578-.036-4.497.76-5.7.679zm-5.213 6.397c-1.817 1.019-.475 2.055-.601 2.09 2.507.579 6.603.728 7.67-1.332.869-2.992-4.44-2.152-5.772-2.092-.287.734-.739.945-1.297 1.334zm9.459 2.264c-1.445.678-.484 1.937-4.773 3.39 5.466.692 20.479-3.251 17.781-4.704-.003-.023-10.939 1.142-13.008 1.314zm-13.983 2.711c-.615.195-3.591 3.24-3.66 3.793 0 0 8.649.899 9.587-2.591.654-2.668-4.416-1.503-5.927-1.202zm9.299 3.653c-1.135 1.108-3.024 1.515-3.919 2.802-.391.452-.391.798.543.816 4.463.121 9.521-.909 13.366-3.922 1.198-1.146.155-1.488.155-1.488-3.43.455-7.604.479-10.145 1.792zm-15.864 2.285c.464.729.491 1.872-.055 2.842l-1.13 1.025c.162.091 9.142-.339 8.614-2.781-.165-1.571-5.566-1.786-7.429-1.086zm10.102 3.736c-1.592 1.086-3.455 1.107-5.189 1.729.207.485-.969 1.385-1.454 1.522 2.491.346 12.865-.073 16.122-2.076 2.905-2.005-6.435-1.521-9.479-1.175zm-16.553 1.58c.246.926.431 2.502-2.695 4.149 1.701.914 7.485 1.258 8.738-1.071.146-.409.258-1.027-.056-1.416-1.197-1.859-5.512-2.013-5.987-1.662zm10.168 4.567c-.521 1.559-5.378 2.432-5.378 2.432 3.456.708 14.461.623 13.491-2.491-1.866-.921-8.025-.899-8.113.059zm-15.718 1.023c-.354 1.313-1.711 2.23-2.943 2.793.169.389 1.383.691 1.853.853 1.973.469 8.387.116 6.406-2.681-.65-.732-3.945-.94-5.316-.965zm9.618 3.086c.169 1.368-4.45 2.61-5.618 2.72l-.227.363c.119.088 11.687 1.675 12.95-1.366 1.159-2.078-4.61-1.762-7.105-1.717zm-15.44 1.245c.499.855-2.589 3.375-5.246 3.609 1.273 1.564 11.445 2.325 10.346-1.658-.77-2.105-5.1-1.951-5.1-1.951zm8.922 3.717c-.729 2.167-4.245 2.439-5.976 2.979.089.753 1.458.859 2.423 1.107 3.256.583 14.183-.692 11.692-2.837.035-.706-8.139-1.249-8.139-1.249zm-14.551 1.786c-.448.685-1.804 2.438-3.343 2.913 0 0 6.903 2.528 8.39-.683-.608-2.024-5.047-2.23-5.047-2.23zm9.165 3.853c-1.595 1.17-2.484 1.681-4.395 1.63-.061.412-1.93.747-1.66 1.176 3.622-.115 11.14 1.868 13.699-.762.347-.691-5.692-2.031-7.644-2.044zm-15.45 2.326c.649 2.025 2.871 2.009 4.724 2.349 1.265.292 3.287-1.453.684-3.292-1.994-.887-3.735-.139-5.408.943zm8.91 2.486s-.138 1.004-3.771 2.456c-.055.289 6.561.699 9.169-.796 1.452-1.037-3.408-2.318-5.398-1.66zm-10.829 1.909c1.143.34 2.952.432 3.841.547 1.972.104.492-1.461-.76-1.972-1.799-.415-2.685.155-3.081 1.425zm-24.665 2.52c-.22.592-2.831 1.321-3.528 1.521-.554-.483-.29-1.215.306-1.784.749.006 2.462.056 3.222.263zm36.67-.312c1.488.52 2.971.941 3.668 1.142.554-.484.151-.835-.445-1.404-.748.004-2.461.054-3.223.262zm-27.49 1.233s-3.576 2.538-6.279-.067c.256-.721 1.088-1.251 1.736-1.614 1.928-.511 2.644 1.939 4.543 1.681zm5.424-.024c-.982.296-1.88 1.504-2.764 1.257-.392-.355-.335-.899-.065-1.328.725-.491 1.606-1.157 2.456-.784.016.332.438.477.373.855zm-15.781 2.44c-.829-.362.914-1.714 1.731-1.331.817.382-.901 1.692-1.731 1.331zm17.168.038c-.343.639-2.222 2.299-2.547.622 0 0 2.678-2.208 2.547-.622zm-4.782 1.813s-3.39 3.113-6.642.485c.97-1.287 3.102-2.341 4.498-2.699-.001 0 .384 1.476 2.144 2.214zm-25.719.875c2.035-.017 3.248.132 5.317-.052.093.204-.148.382-.312.432-2.783.883-6.479.106-9.114.609a6.216 6.216 0 01-2.447-.755c1.713-.664 4.19-.161 6.379-.434zm32.328-1.863c.767 1.25-1.608 1.117-.874 2.536-1.585 1.615-2.054 3.924-2.499 5.898-1.368.856-.755-2.706.135-3.207-.391-.354-.597-1.176-.163-1.654.243-.137.612-.237.681-.532-.348-1.188 1.782-.959.975-2.167.438-.395.933-1.334 1.745-.874z"/><path d="M129.672 144.771c1.6.421 2.916.979 4.54 1.066 1.059.135 6.805 2.33 8.276 6.082-1.224 1.348-3.124 1.564-4.807 2.021-.402.269-.612.749-.235 1.133 1.255 1.021 3.226.509 4.278 1.662 0 0-4.517 1.033-5.713-.387 0 0 .438-.396.468-.646-.194-.573-1.136-.277-.961-.951-.735-.588-1.32 1.321-2.178.521.312-.431-.076-.929-.427-1.103-.445-.208-1.449.795-1.552.138.34-.681 2.253-1.085 1.834-2.021.275-.305.448-.573.287-.929-.311-.4-.652-.218-.989.173-.337.39.079.874-.846 1.412-.442.313-1.268.436-1.521 1.196.281.65-.771 2.556-1.26 1.434-.153-.575.626-.712.522-1.195-.624-1.716 2.006-1.453 1.694-2.778.283-.18.658-.854.521-1.027-.482-.517-1.039-.104-1.135.351-.291 1.718-2.341 1.444-2.458 3.32-.074.688-.783 1.824-1.903 1.88-1.25-.085-.731-1.02-.353-1.272 1.419-.819.71-1.654.819-1.951.497-.896 1.537-.033 1.957-.801.129-.755-.583-1.718.483-2.02.202-.13.063-.684-.456-.613-1.902.331-.727 1.833-1.35 1.937-1.487.276-1.913.853-2.117 1.777.439 1.35-1.585 1.267-1.772 2.87-1.092.266-.574-.72-.763-1.167-.086-.471 1.4-.782.4-2.015.056-1.416 3.387-1.501 1.798-2.374-.486-.13-3.427 1.012-2.699 2.016.585 1.8-1.857 1.738-1.653 3.391.061.311-.236.543-.527.448-.555-.305-.389-1.359-.328-1.819.592-.651 1.331-1.328 1.124-1.847-.208-.52-.538-.501-.312-.969.578-.942 1.979-.713 1.66-2.11l1.145-1.027c-.326-.731-1.405-.051-1.939.059-1.174.639-.532 2.099-2.147 2.219-.761.619-.522 1.23-.115 1.918-.086.793-1.321 1.02-1.275 1.973.261 1.068-1.306 2.539-1.917 1.589-.253-.503.715-.883.604-1.234-.471-1.14-.161-1.612.712-2.443.368-.596-.894-1.288-.004-1.788.889-.542 2.153-1.019 1.476-2.149l.795-.745c.28-1.38-1.969-.099-1.955.802.119 1.615-2.411.865-2.28 2.688.248 1.692-1.815.113-2.111 3.595-1.261.878-1.258-1.671-.757-2.749.5-1.078 1.177-.557 1.434-1.274-.026-.539-.966.129-.554-.946.187-.485.698-1.018 1.456-1.011.758.008.986-1.086 1.24-1.847-.521-.474-.935.134-1.627-.129-2.798-1.061-2.595-2.948-2.817-4.934 0-.003 12.521.22 18.29 2.6zm4.512 3.063c-.359.167-.267.512-.267.512.464.254 1.17.85 1.388 1.293.406 3.897 3.943 2.905 4.704 2.215l.64-.136c-.812-2.079-2.559-2.524-4.306-3.013-1.092-.305-2.021-.934-2.159-.871zm-50.763 3.964c-.378.768-1.318 1.104-2.052 1.389-1.054.551-2.262.484-3.549.505.846-2.244 3.671-1.426 5.601-1.894z"/><path d="M138.04 151.055c.828-.066 1-.797 1.493-.072.109.535-2.287 1.648-3.017-.132-.139-.485.06-.848.384-1.028.619.058.352 1.27 1.14 1.232zm-52.197 1.831l.011.208c-1.745 2.578-4.504 2.255-6.471 3.681.082-.877 1.219-1.431 1.958-2.464 1.793.121 2.786-1.673 4.502-1.425zm2.44.589c-.398 1.224-2.023 2.841-3.072 4.347-.898.335-1.813 1.169-2.74.924l-.021-.415c1.831-1.67 3.048-4.845 5.833-4.856zm-2.149 7.086c-.196-2.317 2.24-4.347 4.139-5.479-.693 1.987-2.055 4.754-4.139 5.479zm58.12-6.525c.112.617-.266.861.115 1.311.381.45 1.323-.923 1.371.196.047 1.118 1.086.323 1.12 1.292.146.45.068 1.176-.485 1.349-.947.171-1.019-1.125-1.783-1.463-1.547-1.046-3.431-1.329-5.093-2.162.236-.261.735-.285 1.102-.428.409.728 1.574.979 2.205.89.629-.089.531-.938.355-1.222-.177-.284-.608-.554-.121-.784.695-.241 1.026.573 1.214 1.021zm-54.275 7.835c-.493.106-.843.622-1.475.445-.583-1.718 1.008-3.208 1.686-4.654.596-.569 1.014-1.379 1.79-1.667-.061 2.165-1.258 4.052-2.001 5.876zm17.388-3.963c.92.952-.234 2.006-.352 3.009a151.842 151.842 0 01-7.771 8.566c-.261.636-.311 1.304.092 1.906 1.577.797 1.458 2.632 2.064 3.974.818 2.287 1.802 4.566 2.453 6.863.931 1.201 2.445.712 3.445 1.619.519 1.263.761 2.83 1.023 3.94-.303.597-1.055 1.382-1.746 1.706-.319-.566.261-1.468.308-2.218-.672-1.006-.048-2.699-1.368-3.341-1.078.052-1.505-1.049-2.551-1.165-.756 1.533 1.335 1.805 2.126 2.681-.137 1.462.457 3.428-1.386 3.975-.63-.136-1.532.116-1.812-.494.77-.411 1.758.247 2.126-.727.445-1.102-.095-1.948-.795-2.663-1.156-.691-1.811-2.198-3.322-2.498-.318-.566-.938-.495-1.31-.436-1.097.512-.249 1.717-.584 2.522-.42-.104-.816-.542-1.039-.864-.177-1.071.999-1.669 1.371-2.56 1.155-.182 3.357 1.499 3.836-.603-1.231-3.099-1.841-6.228-3.595-8.969-.356-.481-.705.034-1.015-.366l.246-.927c-.426-.229-.887-.29-1.289-.021-.202.135-.31.473-.602.445-.41-.729 1.391-1.314.322-1.928-.375-.024-.511.606-.902.252l.933-1.334c-.23-.446-.917-.039-.901-.579.529-.234 1.256-.685 1.306-1.353-.57-.596-1.515.489-1.808-.411.739-.202 1.701-.082 2.029-1.013.104-.422-.786-.793-.342-1.064.201-.134.448-.188.602-.444-.009-1.038-1.518-.425-1.69-1.414.776-.287 2.375.965 2.469-.494-.266-.36-.729-.463-.909-.746l.971-.546c.08-.918-2.545-1.04-.912-1.66.388-.558-.795-.958-.446-1.474 3.248.927 7.133 1.32 10.725.854zm9.915.413c-.021.418-.728.693-1.217.659-1.379-.141-2.834-.152-4.179-.461-.022-.456.829-1.512.829-1.512z"/><path d="M119.582 161.221c.137.243.259 1.111-.225 1.426-1.668.954-5.604 3.529-8.373 5.189-.806.659-1.798.691-1.899 1.46.032 1.169.998.865 1.551 1.129 1.095 2.856 2.025 5.763 3.241 8.529l3.402.749 2.284 3.078-.553 1.591c-.957.836-1.488 1.875-2.491 2.63-.427-.229-.285-.598-.218-.893l1.476-2.149c-.38-.979-.773-2.218-1.624-2.622-.508-.184-1.295-.287-1.604-.504-.284.733 1.207 1.366 1.277 1.601.429 1.102.9 2.007-.33 3.341-.638.571-1.469 1.227-2.367.904-.208-.094-.593-.22-.407-.687.617-.114 1.633-.367 1.79-1.413.171-1.63-.486-2.558-1.462-3.798-1.182-.359-2.306-1.26-3.545-1.116-.987.214-.191 2.045-1.513 1.361-.515-.349-.348-1.188-.29-1.69-.016-.33.384-.642.667-.821.896-.377 1.793.12 2.668.161l.193-.3c-.677-1.963-1.071-4.063-1.586-6.116-.355-.481-.815-.085-1.22.142-.075.17-.623.277-.688-.049-.155-.615 1.126-1.635-.087-1.783-.62.072-1.371 1.763-1.624.786-.027-.539.625-.82.104-1.294-.305-.276-1.008-.2-.909-.746.16-.72 2.082-.428 1.544-1.411-.178-.241-.868-.076-.766-.538 1.316-.271 2.536-.83 3.41-1.661.746-.776-.609-.554-.425-1.061.647-.364 2.209-.614 1.714-1.497-.139-.284-.591-.179-.526-.557.622-.029 1.366-.152 1.541-.78.094-.628-.936-.688-.436-1.267 2.486.667 5.787 1.007 8.306.676zm-16.83 10.143c.02.415-.346.9-.879.9-.297-.347-.772-1.188-.159-1.384.484-.069.905.324 1.038.484z"/><path d="M120.672 180.843c.409.729 1.729 1.246.983 2.514-.88.707-1.465 2.545-2.437 3.091-.477-.392.381-1.254.623-1.867.418-.81 1.348-1.409.678-2.375-.457-.85-1.766-1.922-1.646-2.884.635.256 1.201.98 1.799 1.521zm-7.404 3.65c-.236.261-1.166.751-1.453.848-.312-1.273-.719-2.885-1.923-3.699-.14-.325.227-.468.381-.725 1.237-.227 3.923 2.991 2.995 3.576zm-2.768-.19c.278.761.623 2.101-.221 2.724-.401.252-.818.355-.956.113.139-1.453-1.03-3.282-.83-4.29 1.111-.262 1.524.553 2.007 1.453zm-8.212 2.488c.032.663-.607 1.194-1.289.854-.637-.261-1.77-.497-1.653-1.5l.131-1.586c1.129.112 2.185 1.306 2.811 2.232z"/></g><path d="M37.07 40.848l8.281-5.127 2.804 4.421.408-.256.75-.469.408-.265-8.419-13.205zm7.29-6.69l-4.128 2.575 1.704-6.394zm53.549-17.837l-3.595 7.499-2.578-4.62-1.191.599-.441.231 3.199 5.696-2.43 5.334 1.233.575.426.204 7.048-14.75-1.237-.567zm14.268 2.374l-3.838 3.839.921-6.559-1.366-.142-.462-.052-.987 7.005-3.25-4.143-1.07.812-.387.292 4.386 5.601-.563 4.593-.07.477 1.365.15.472.052.624-5.14 5.515-5.495-.943-.954zM62.261 27.85l-.071-.478-4.556.66 2.833-3.769-1.1-.818-.39-.287-4.604 6.193 6.423 4.867.834-1.063.297-.387-3.901-2.938 4.43-.649zm-12.152-2.167l-.831.25-.463.147 3.421 11.182 1.294-.398.457-.139-3.422-11.19zm19.995-4.778l-.467.044.425 5.238-4.357-6.236-1.153 15.784.475.044.866.079.487.043.742-10.537 5.29 7.871-.946-12.472zm57.661 9.123l.479.099.857.168.451.087 1.082-4.788.076.248 6.826-3.338-6.527-7.171zm4.311-10.82l2.465 2.72-3.477 1.769zm43.58 4.346l-.836-.212-.467-.114-2.838 11.349 1.316.327.467.115 2.82-11.35zm10.406 3.808l-.441-.177-2.082 4.822-.914-7.552-8.434 13.39.398.267.727.466.402.267 5.611-8.958.988 9.416 5.006-11.428zm-15.97-3.78l-.695-1.177-.26-.415-6.605 3.984 4.09 6.942 1.174-.671.418-.239-2.494-4.207 4.354 1.089.32-1.317.113-.466-4.451-1.114zm-16.26-3.385l-.086.441.441.114 2.328.594-2.561 12.003 1.314.3.471.114 2.588-12.065 2.199.45.451.098.336-1.352.121-.477-7.318-1.774zm-37.76-4.423h-.475v11.692h1.825V15.774h-.475zm9.301 2.057l-.316-.204-3.516 3.224-.178-4.672-.025-.477-1.334.035-.488.017.529 14.036 1.434-.256.404-.071-.188-5.053 3.473 2.897.877-1.016.316-.371-4-3.338 4.313-3.887zm12.947 11.191l9.586-1.658.945 5.146.486-.079.861-.161.471-.087-2.859-15.405zm4.461-2.633l3.975-5.29.82 4.457z" fill="#ff0"/></svg>